<svg xmlns:xlink="http://www.w3.org/1999/xlink" xmlns="http://www.w3.org/2000/svg" id="Layer_2" viewBox="0 0 492.66 257" width="492.66"  height="257" ><defs><style>.cls-1,.cls-6,.cls-7,.cls-8{fill:none;}.cls-2,.cls-9{fill:#fcea67;}.cls-3{stroke:#000;}.cls-3,.cls-4{stroke-miterlimit:10;}.cls-4{stroke:#110d0d;}.cls-5{font-size:90px;font-family:Bauhaus93, Bauhaus 93;letter-spacing:-0.03em;}.cls-10,.cls-5{fill:#fff;}.cls-6,.cls-8{stroke:#fcea67;}.cls-10,.cls-6,.cls-7,.cls-8,.cls-9{stroke-linecap:round;stroke-linejoin:round;}.cls-6{stroke-width:10px;}.cls-10,.cls-7,.cls-9{stroke:#352020;}.cls-7{stroke-width:4px;}.cls-8{stroke-width:15px;}.cls-10,.cls-9{stroke-width:6px;}</style></defs><title>Artboard 1</title><rect class="cls-1" x="-60.2" y="-159.03" width="613.06" height="613.06"/><g id="JOB_outline"><g id="B"><path d="M373.08,246.48c-6.4,0-12.91-.1-19.21-.2s-12.89-.21-19.37-.21a8,8,0,0,1-8-8V227.63a8,8,0,0,1,.85-3.59,8.15,8.15,0,0,1-.66-3.21v-72a8,8,0,0,1,7.64-8c6.4-.29,12.65-.31,18.5-.31h5.32c10.55,0,20.84-.11,30.72-1.41,26.22-3.45,29.19-16.12,28.46-29.31-1.05-15-15.58-27.14-32.42-27.14l-.61,0c-8.23-.63-23.24-1.17-24.79-1.23l-24.88,0a8,8,0,0,1-8-8V62.21a8,8,0,0,1,8-8h0s24,.08,32.68.08c8.86,0,30.66,2.55,42.56,7.63,18.15,7.76,30.91,23.08,34.14,41a49.33,49.33,0,0,1-9.56,39.1c11.44,10.89,17.74,22.92,19.17,36.56,1.8,17.16-3.06,33.54-13.69,46.14s-25.8,20-43,21.09C389.89,246.26,382.28,246.48,373.08,246.48Z"/><path class="cls-2" d="M334.65,62.21s24,.08,32.7.08,29.21,2.63,39.41,7C438.56,82.86,447,120,423.12,142.72c11.89,9.46,20.93,21,22.58,36.69,3.19,30.36-17.66,56.37-49.21,58.41-7.77.5-15.57.66-23.41.66-12.73,0-25.56-.41-38.58-.41V227.63c10.82,0,20.45.1,30.72.1,9,0,18.59-.08,29.88-.38,19.07-.52,33.7-12.16,38.76-31.27,5.22-19.68-3.34-34.79-19.94-46.15l-6.21,3.29c15,11.35,23,25.63,15.85,43.76C416,216,399,220.57,380.44,220.8c-5.83.07-11.66.09-17.51.09-9.33,0-18.71-.06-28.24-.06v-72c6.06-.27,12.11-.3,18.12-.3h5.36c10.68,0,21.27-.1,31.74-1.48,26.26-3.45,36.6-16.27,35.41-37.73C424,90,406,74.68,384.91,74.68c-8.91-.68-25.26-1.25-25.26-1.25l-25,0V62.21m11,146.57h5.39V159h-5.39v49.8m-11-162.57a16,16,0,0,0-16,16V73.39a16,16,0,0,0,16,16l24.74,0c2.09.08,16.45.6,24.33,1.2.41,0,.81.05,1.22.05,12.7,0,23.64,8.81,24.44,19.65.55,10.15-.74,18.13-21.52,20.87-9.4,1.24-19.4,1.34-29.66,1.34h-5.36c-5.67,0-12.27,0-18.84.32a16,16,0,0,0-15.28,16v72a16.27,16.27,0,0,0,.27,3,16,16,0,0,0-.46,3.82v10.44a16,16,0,0,0,16,16c6.42,0,12.94.1,19.25.2s12.87.21,19.33.21c9.38,0,17.15-.22,24.45-.69,19.35-1.25,36.6-9.75,48.56-23.92s17.55-32.79,15.52-52.14c-1.42-13.58-7-25.68-16.85-36.64a56.94,56.94,0,0,0,7.16-39.6c-3.71-20.57-18.24-38.11-38.87-46.92-13.52-5.78-36.81-8.28-45.7-8.28-8.53,0-32.41-.08-32.65-.08Z"/><path d="M334.62,150.21a8,8,0,0,1-8-8V80.74a8,8,0,0,1,8-8h0c6.24,0,12.51.09,18.45.14,6.94.06,13.5.12,18.89.12,10.76,0,16.64.63,23.28,2.5,26,7.31,30.88,24.06,30.36,36.94.27,14.59-8.71,26.6-24.67,33C389.54,150,379.16,150,370,150c-9,0-21.54.08-35.3.21Z"/><path class="cls-2" d="M334.62,80.74C348.23,80.8,362,81,372,81s15.18.53,21.12,2.2c14,4,25.31,12.1,24.52,29.16C418,126,408,134,398,138s-19,4-28,4-21.65.08-35.38.21V80.74M345.74,130h5.37V92h-5.37v38m-11.12-65.3a16,16,0,0,0-16,16v61.47a16,16,0,0,0,16,16h.16C348.51,158.08,361,158,370,158c9.88,0,21.08,0,33.94-5.14a52,52,0,0,0,19.77-13.49,39.21,39.21,0,0,0,9.93-26.84c.43-12.06-3.42-22.68-11.16-30.75-6.06-6.31-14.48-11-25-14C390,65.71,383.59,65,372,65c-5.35,0-11.89-.06-18.82-.12-6,0-12.22-.11-18.49-.14Z"/></g><g id="J"><path d="M64,247c-31,0-44.68-14.09-52-21.66-.58-.6-1.12-1.16-1.65-1.68a8,8,0,0,1-.65-10.57c7.11-9.15,18-21,18.41-21.5a8,8,0,0,1,10.7-1c1.2.9,2.39,1.84,3.6,2.79C49,198.55,54.63,203,63,203c9.61,0,28-10.51,28-27V101.48l-8.53.51H82a8,8,0,0,1-8-8V66a8,8,0,0,1,8-8h44a8,8,0,0,1,8,8V176C134,217.84,97.11,247,64,247Z"/><path class="cls-2" d="M126,66V176c0,36-32,63-62,63s-41-14-48-21c7-9,18-21,18-21,8,6,16,14,29,14s36-13,36-35V93L82,94V66h44m0-16H82A16,16,0,0,0,66,66V94a16,16,0,0,0,16,16c.31,0,.63,0,.94,0H83v66c0,6.17-3.93,10.66-7.22,13.34C71,193.24,65.42,195,63,195c-5.34,0-9.23-2.86-15.65-7.9-1.21-.95-2.46-1.93-3.75-2.9a16,16,0,0,0-21.39,2c-.47.51-11.53,12.58-18.84,22a16,16,0,0,0,1.32,21.13l1.55,1.59C14.4,239.33,29.58,255,64,255c19,0,38.42-8.18,53.32-22.44C133.23,217.32,142,197.23,142,176V66a16,16,0,0,0-16-16Z"/></g><g id="chat"><ellipse cx="223.5" cy="151.5" rx="82.5" ry="81.5"/><path class="cls-2" d="M223.5,78c41.15,0,74.5,32.91,74.5,73.5S264.65,225,223.5,225,149,192.09,149,151.5,182.35,78,223.5,78m0-16c-49.9,0-90.5,40.15-90.5,89.5S173.6,241,223.5,241,314,200.85,314,151.5,273.4,62,223.5,62Z"/><path d="M270,208a8,8,0,0,1-7.16-11.58l20-40a8,8,0,0,1,6.37-4.38,7,7,0,0,1,.79,0,8,8,0,0,1,6.31,3.08c.7.9,17.23,22.11,20.2,26.27,4.08,5.71,4.83,12.4,2,17.89S309.89,208,303,208Z"/><path class="cls-2" d="M290,160s17.09,21.93,20,26c5,7,1,14-7,14H270l20-40m0-16c-.52,0-1.05,0-1.58.08a16,16,0,0,0-12.73,8.76l-20,40A16,16,0,0,0,270,216h33c9.8,0,18.47-5,22.63-13.1s3.25-18-2.61-26.2c-3-4.22-18.63-24.26-20.4-26.54A16,16,0,0,0,290,144Z"/></g></g><g id="JOB"><g id="B-2"><path class="cls-3" d="M334.5,238.07V227.63c20.35,0,36.5.37,60.6-.28,19.07-.52,33.7-12.16,38.76-31.27,5.22-19.68-3.34-34.79-19.94-46.15l-6.21,3.29c15,11.35,23,25.63,15.85,43.76C416,216,399,220.57,380.44,220.8c-15.12.18-30.24,0-45.75,0v-72c18.65-.84,37.12.61,55.22-1.78,26.26-3.45,36.6-16.27,35.41-37.73C424,90,406,74.68,384.91,74.68c-8.91-.68-25.26-1.25-25.26-1.25l-25,0V62.21s24,.08,32.7.08,29.21,2.63,39.41,7C438.56,82.86,447,120,423.12,142.72c11.89,9.46,20.93,21,22.58,36.69,3.19,30.36-17.67,56.37-49.21,58.41C376.09,239.14,355.53,238.07,334.5,238.07ZM345.68,159v49.8h5.39V159Z"/><path class="cls-4" d="M334.62,142.21V80.74C348.23,80.8,362,81,372,81s15.18.53,21.12,2.2c14,4,25.31,12.1,24.52,29.16C418,126,408,134,398,138s-19,4-28,4S348.35,142.08,334.62,142.21ZM345.74,92v38h5.37V92Z"/></g><g id="J-2"><path d="M64,239.5c-27.85,0-39.6-12.13-46.62-19.38-.61-.62-1.18-1.22-1.73-1.77l-.32-.31.28-.35c6.93-8.91,17.91-20.91,18-21l.31-.33.36.27c1.15.86,2.3,1.77,3.47,2.69C44.79,204.8,52,210.5,63,210.5c12,0,35.5-12.18,35.5-34.5V93.53l-17,1v-29h45V176c0,17-7.07,33.07-19.9,45.36C94.56,232.89,79,239.5,64,239.5Z"/><path d="M126,66V176c0,36-32,63-62,63s-41-14-48-21c7-9,18-21,18-21,8,6,16,14,29,14s36-13,36-35V93L82,94V66h44m1-1H81V95.06L82.06,95,98,94.06V176c0,9.41-4.53,18.28-12.76,25-6.74,5.49-15.47,9-22.24,9-10.79,0-18-5.65-24.92-11.11-1.14-.89-2.32-1.82-3.48-2.69l-.72-.54-.62.66c-.11.12-11.1,12.14-18,21.07l-.54.69.62.63c.55.54,1.12,1.13,1.73,1.76C24.09,227.77,35.94,240,64,240c15.16,0,30.81-6.66,42.94-18.28C119.88,209.34,127,193.1,127,176V65Z"/></g><g id="chat-2"><ellipse class="cls-3" cx="223.5" cy="151.5" rx="74.5" ry="73.5"/><path class="cls-3" d="M290,160s17.09,21.93,20,26c5,7,1,14-7,14H270Z"/><text class="cls-5" transform="translate(175.88 161.06)">...</text></g></g><g id="plane"><polygon points="442 38 415.59 19.23 484 10 442 38"/><polygon points="484 10 449 69 442 38 484 10"/><polygon points="442 38 415.59 19.23 484 10 442 38"/><polygon points="484 10 449 69 442 38 484 10"/><polygon points="442 38 415.59 19.23 484 10 442 38"/><polygon points="484 10 449 69 442 38 484 10"/><line class="cls-6" x1="392.09" y1="34.42" x2="425.71" y2="34.42"/><line class="cls-6" x1="414.06" y1="46.68" x2="435.68" y2="46.68"/><line class="cls-7" x1="392.09" y1="34.42" x2="425.71" y2="34.42"/><line class="cls-7" x1="414.06" y1="46.68" x2="435.68" y2="46.68"/><polygon class="cls-8" points="442 38 415.59 19.23 484 10 442 38"/><polygon class="cls-8" points="484 10 449 69 442 38 484 10"/><polygon class="cls-9" points="442 38 415.59 19.23 484 10 442 38"/><polygon class="cls-10" points="484 10 449 69 442 38 484 10"/></g></svg>